<?xml version="1.0" ?>
<svg id="icons" style="enable-background:new 0 0 96 96;" version="1.1" viewBox="0 0 96 96" xml:space="preserve" xmlns="http://www.w3.org/2000/svg" ><style type="text/css">
	.st1{opacity:0.05;fill:#000 ;}
	.st5{fill:#ccc;}
	.st6{opacity:0.05;fill:#FFFFFF;}
</style><g id="grey"/><g id="colored"><g id="record"><circle class="st5" cx="48" cy="48" id="bck_12_" r="42"/><path class="st6" d="M69.2,26.8C51.5,44.5,48.5,47.5,26.8,69.2c-11.7-11.7-11.7-30.7,0-42.4    C38.5,15.1,57.5,15.1,69.2,26.8z" id="light"/><path class="st1" d="M77.7,18.3l-8.5,8.5C74.6,32.2,78,39.7,78,48c0,16.6-13.4,30-30,30c-8.3,0-15.8-3.4-21.2-8.8    l-8.5,8.5C25.9,85.3,36.4,90,48,90c23.2,0,42-18.8,42-42C90,36.4,85.3,25.9,77.7,18.3z" id="shadow_16_"/></g></g></svg>